<mxfile host="app.diagrams.net" modified="2021-12-21T06:57:06.878Z" agent="5.0 (Windows NT 10.0; Win64; x64) AppleWebKit/537.36 (KHTML, like Gecko) Chrome/95.0.4638.69 Safari/537.36" etag="aGDqWy7f22pTjgtgWpq-" version="15.9.6" type="github">
  <diagram id="WAlhVrl_Yb6VkF_u1bJs" name="第 1 页">
    <mxGraphModel dx="2207" dy="547" grid="1" gridSize="10" guides="1" tooltips="1" connect="1" arrows="1" fold="1" page="1" pageScale="1" pageWidth="1169" pageHeight="827" math="0" shadow="0">
      <root>
        <mxCell id="0" />
        <mxCell id="1" parent="0" />
        <mxCell id="hx7UnCRA5eKLAJgafwng-28" value="" style="rounded=0;whiteSpace=wrap;html=1;fontSize=24;" parent="1" vertex="1">
          <mxGeometry x="-200" y="170" width="500" height="460" as="geometry" />
        </mxCell>
        <mxCell id="rzm8wvXEx45XX3Ws8Rya-18" value="frps" style="rounded=0;whiteSpace=wrap;html=1;fontSize=24;" parent="1" vertex="1">
          <mxGeometry x="110" y="219.25" width="160" height="360.5" as="geometry" />
        </mxCell>
        <mxCell id="hx7UnCRA5eKLAJgafwng-1" value="`" style="rounded=0;whiteSpace=wrap;html=1;" parent="1" vertex="1">
          <mxGeometry x="540" y="169" width="710" height="541" as="geometry" />
        </mxCell>
        <mxCell id="rzm8wvXEx45XX3Ws8Rya-16" value="frpc" style="rounded=0;whiteSpace=wrap;html=1;fontSize=24;" parent="1" vertex="1">
          <mxGeometry x="610" y="219.25" width="170" height="410.75" as="geometry" />
        </mxCell>
        <mxCell id="BerOtadObNwDrbP9cR0y-13" value="" style="shape=table;startSize=0;container=1;collapsible=0;childLayout=tableLayout;fontSize=18;" parent="1" vertex="1">
          <mxGeometry x="880" y="320" width="330" height="30" as="geometry" />
        </mxCell>
        <mxCell id="BerOtadObNwDrbP9cR0y-14" value="" style="shape=partialRectangle;collapsible=0;dropTarget=0;pointerEvents=0;fillColor=none;top=0;left=0;bottom=0;right=0;points=[[0,0.5],[1,0.5]];portConstraint=eastwest;fontSize=18;" parent="BerOtadObNwDrbP9cR0y-13" vertex="1">
          <mxGeometry width="330" height="30" as="geometry" />
        </mxCell>
        <mxCell id="BerOtadObNwDrbP9cR0y-15" value="" style="shape=partialRectangle;html=1;whiteSpace=wrap;connectable=0;overflow=hidden;fillColor=none;top=0;left=0;bottom=0;right=0;pointerEvents=1;fontSize=18;" parent="BerOtadObNwDrbP9cR0y-14" vertex="1">
          <mxGeometry width="90" height="30" as="geometry">
            <mxRectangle width="90" height="30" as="alternateBounds" />
          </mxGeometry>
        </mxCell>
        <mxCell id="BerOtadObNwDrbP9cR0y-16" value="Wiki_OutLine在线云笔记" style="shape=partialRectangle;html=1;whiteSpace=wrap;connectable=0;overflow=hidden;fillColor=none;top=0;left=0;bottom=0;right=0;pointerEvents=1;fontSize=18;" parent="BerOtadObNwDrbP9cR0y-14" vertex="1">
          <mxGeometry x="90" width="240" height="30" as="geometry">
            <mxRectangle width="240" height="30" as="alternateBounds" />
          </mxGeometry>
        </mxCell>
        <mxCell id="BerOtadObNwDrbP9cR0y-17" value="" style="shape=table;startSize=0;container=1;collapsible=0;childLayout=tableLayout;fontSize=18;" parent="1" vertex="1">
          <mxGeometry x="880" y="270" width="330" height="30" as="geometry" />
        </mxCell>
        <mxCell id="BerOtadObNwDrbP9cR0y-18" value="" style="shape=partialRectangle;collapsible=0;dropTarget=0;pointerEvents=0;fillColor=none;top=0;left=0;bottom=0;right=0;points=[[0,0.5],[1,0.5]];portConstraint=eastwest;fontSize=18;" parent="BerOtadObNwDrbP9cR0y-17" vertex="1">
          <mxGeometry width="330" height="30" as="geometry" />
        </mxCell>
        <mxCell id="BerOtadObNwDrbP9cR0y-19" value="25565" style="shape=partialRectangle;html=1;whiteSpace=wrap;connectable=0;overflow=hidden;fillColor=none;top=0;left=0;bottom=0;right=0;pointerEvents=1;fontSize=18;" parent="BerOtadObNwDrbP9cR0y-18" vertex="1">
          <mxGeometry width="90" height="30" as="geometry">
            <mxRectangle width="90" height="30" as="alternateBounds" />
          </mxGeometry>
        </mxCell>
        <mxCell id="BerOtadObNwDrbP9cR0y-20" value="MineCraft私服" style="shape=partialRectangle;html=1;whiteSpace=wrap;connectable=0;overflow=hidden;fillColor=none;top=0;left=0;bottom=0;right=0;pointerEvents=1;fontSize=18;" parent="BerOtadObNwDrbP9cR0y-18" vertex="1">
          <mxGeometry x="90" width="240" height="30" as="geometry">
            <mxRectangle width="240" height="30" as="alternateBounds" />
          </mxGeometry>
        </mxCell>
        <mxCell id="BerOtadObNwDrbP9cR0y-21" value="" style="shape=table;startSize=0;container=1;collapsible=0;childLayout=tableLayout;fontSize=18;" parent="1" vertex="1">
          <mxGeometry x="880" y="370" width="330" height="30" as="geometry" />
        </mxCell>
        <mxCell id="BerOtadObNwDrbP9cR0y-22" value="" style="shape=partialRectangle;collapsible=0;dropTarget=0;pointerEvents=0;fillColor=none;top=0;left=0;bottom=0;right=0;points=[[0,0.5],[1,0.5]];portConstraint=eastwest;fontSize=18;" parent="BerOtadObNwDrbP9cR0y-21" vertex="1">
          <mxGeometry width="330" height="30" as="geometry" />
        </mxCell>
        <mxCell id="BerOtadObNwDrbP9cR0y-23" value="8443" style="shape=partialRectangle;html=1;whiteSpace=wrap;connectable=0;overflow=hidden;fillColor=none;top=0;left=0;bottom=0;right=0;pointerEvents=1;fontSize=18;" parent="BerOtadObNwDrbP9cR0y-22" vertex="1">
          <mxGeometry width="90" height="30" as="geometry">
            <mxRectangle width="90" height="30" as="alternateBounds" />
          </mxGeometry>
        </mxCell>
        <mxCell id="BerOtadObNwDrbP9cR0y-24" value="Drawio在线绘图工具" style="shape=partialRectangle;html=1;whiteSpace=wrap;connectable=0;overflow=hidden;fillColor=none;top=0;left=0;bottom=0;right=0;pointerEvents=1;fontSize=18;" parent="BerOtadObNwDrbP9cR0y-22" vertex="1">
          <mxGeometry x="90" width="240" height="30" as="geometry">
            <mxRectangle width="240" height="30" as="alternateBounds" />
          </mxGeometry>
        </mxCell>
        <mxCell id="BerOtadObNwDrbP9cR0y-33" value="" style="shape=table;startSize=0;container=1;collapsible=0;childLayout=tableLayout;fontSize=18;" parent="1" vertex="1">
          <mxGeometry x="880" y="470" width="330" height="30" as="geometry" />
        </mxCell>
        <mxCell id="BerOtadObNwDrbP9cR0y-34" value="" style="shape=partialRectangle;collapsible=0;dropTarget=0;pointerEvents=0;fillColor=none;top=0;left=0;bottom=0;right=0;points=[[0,0.5],[1,0.5]];portConstraint=eastwest;fontSize=18;" parent="BerOtadObNwDrbP9cR0y-33" vertex="1">
          <mxGeometry width="330" height="30" as="geometry" />
        </mxCell>
        <mxCell id="BerOtadObNwDrbP9cR0y-35" value="" style="shape=partialRectangle;html=1;whiteSpace=wrap;connectable=0;overflow=hidden;fillColor=none;top=0;left=0;bottom=0;right=0;pointerEvents=1;fontSize=18;" parent="BerOtadObNwDrbP9cR0y-34" vertex="1">
          <mxGeometry width="90" height="30" as="geometry">
            <mxRectangle width="90" height="30" as="alternateBounds" />
          </mxGeometry>
        </mxCell>
        <mxCell id="BerOtadObNwDrbP9cR0y-36" value="NextCloud私有云" style="shape=partialRectangle;html=1;whiteSpace=wrap;connectable=0;overflow=hidden;fillColor=none;top=0;left=0;bottom=0;right=0;pointerEvents=1;fontSize=18;" parent="BerOtadObNwDrbP9cR0y-34" vertex="1">
          <mxGeometry x="90" width="240" height="30" as="geometry">
            <mxRectangle width="240" height="30" as="alternateBounds" />
          </mxGeometry>
        </mxCell>
        <mxCell id="BerOtadObNwDrbP9cR0y-37" value="" style="shape=table;startSize=0;container=1;collapsible=0;childLayout=tableLayout;fontSize=18;" parent="1" vertex="1">
          <mxGeometry x="880" y="420" width="330" height="30" as="geometry" />
        </mxCell>
        <mxCell id="BerOtadObNwDrbP9cR0y-38" value="" style="shape=partialRectangle;collapsible=0;dropTarget=0;pointerEvents=0;fillColor=none;top=0;left=0;bottom=0;right=0;points=[[0,0.5],[1,0.5]];portConstraint=eastwest;fontSize=18;" parent="BerOtadObNwDrbP9cR0y-37" vertex="1">
          <mxGeometry width="330" height="30" as="geometry" />
        </mxCell>
        <mxCell id="BerOtadObNwDrbP9cR0y-39" value="" style="shape=partialRectangle;html=1;whiteSpace=wrap;connectable=0;overflow=hidden;fillColor=none;top=0;left=0;bottom=0;right=0;pointerEvents=1;fontSize=18;" parent="BerOtadObNwDrbP9cR0y-38" vertex="1">
          <mxGeometry width="90" height="30" as="geometry">
            <mxRectangle width="90" height="30" as="alternateBounds" />
          </mxGeometry>
        </mxCell>
        <mxCell id="BerOtadObNwDrbP9cR0y-40" value="Lsky Pro图床" style="shape=partialRectangle;html=1;whiteSpace=wrap;connectable=0;overflow=hidden;fillColor=none;top=0;left=0;bottom=0;right=0;pointerEvents=1;fontSize=18;" parent="BerOtadObNwDrbP9cR0y-38" vertex="1">
          <mxGeometry x="90" width="240" height="30" as="geometry">
            <mxRectangle width="240" height="30" as="alternateBounds" />
          </mxGeometry>
        </mxCell>
        <mxCell id="BerOtadObNwDrbP9cR0y-41" value="" style="shape=table;startSize=0;container=1;collapsible=0;childLayout=tableLayout;fontSize=18;" parent="1" vertex="1">
          <mxGeometry x="880" y="520" width="330" height="30" as="geometry" />
        </mxCell>
        <mxCell id="BerOtadObNwDrbP9cR0y-42" value="" style="shape=partialRectangle;collapsible=0;dropTarget=0;pointerEvents=0;fillColor=none;top=0;left=0;bottom=0;right=0;points=[[0,0.5],[1,0.5]];portConstraint=eastwest;fontSize=18;" parent="BerOtadObNwDrbP9cR0y-41" vertex="1">
          <mxGeometry width="330" height="30" as="geometry" />
        </mxCell>
        <mxCell id="BerOtadObNwDrbP9cR0y-43" value="" style="shape=partialRectangle;html=1;whiteSpace=wrap;connectable=0;overflow=hidden;fillColor=none;top=0;left=0;bottom=0;right=0;pointerEvents=1;fontSize=18;" parent="BerOtadObNwDrbP9cR0y-42" vertex="1">
          <mxGeometry width="90" height="30" as="geometry">
            <mxRectangle width="90" height="30" as="alternateBounds" />
          </mxGeometry>
        </mxCell>
        <mxCell id="BerOtadObNwDrbP9cR0y-44" value="NextCloud私有云" style="shape=partialRectangle;html=1;whiteSpace=wrap;connectable=0;overflow=hidden;fillColor=none;top=0;left=0;bottom=0;right=0;pointerEvents=1;fontSize=18;" parent="BerOtadObNwDrbP9cR0y-42" vertex="1">
          <mxGeometry x="90" width="240" height="30" as="geometry">
            <mxRectangle width="240" height="30" as="alternateBounds" />
          </mxGeometry>
        </mxCell>
        <mxCell id="BerOtadObNwDrbP9cR0y-45" value="" style="shape=table;startSize=0;container=1;collapsible=0;childLayout=tableLayout;fontSize=18;" parent="1" vertex="1">
          <mxGeometry x="880" y="570" width="330" height="30" as="geometry" />
        </mxCell>
        <mxCell id="BerOtadObNwDrbP9cR0y-46" value="" style="shape=partialRectangle;collapsible=0;dropTarget=0;pointerEvents=0;fillColor=none;top=0;left=0;bottom=0;right=0;points=[[0,0.5],[1,0.5]];portConstraint=eastwest;fontSize=18;" parent="BerOtadObNwDrbP9cR0y-45" vertex="1">
          <mxGeometry width="330" height="30" as="geometry" />
        </mxCell>
        <mxCell id="BerOtadObNwDrbP9cR0y-47" value="" style="shape=partialRectangle;html=1;whiteSpace=wrap;connectable=0;overflow=hidden;fillColor=none;top=0;left=0;bottom=0;right=0;pointerEvents=1;fontSize=18;" parent="BerOtadObNwDrbP9cR0y-46" vertex="1">
          <mxGeometry width="90" height="30" as="geometry">
            <mxRectangle width="90" height="30" as="alternateBounds" />
          </mxGeometry>
        </mxCell>
        <mxCell id="BerOtadObNwDrbP9cR0y-48" value="VS Code Web IDE" style="shape=partialRectangle;html=1;whiteSpace=wrap;connectable=0;overflow=hidden;fillColor=none;top=0;left=0;bottom=0;right=0;pointerEvents=1;fontSize=18;" parent="BerOtadObNwDrbP9cR0y-46" vertex="1">
          <mxGeometry x="90" width="240" height="30" as="geometry">
            <mxRectangle width="240" height="30" as="alternateBounds" />
          </mxGeometry>
        </mxCell>
        <mxCell id="BerOtadObNwDrbP9cR0y-49" value="" style="shape=table;startSize=0;container=1;collapsible=0;childLayout=tableLayout;fontSize=18;" parent="1" vertex="1">
          <mxGeometry x="880" y="620" width="330" height="30" as="geometry" />
        </mxCell>
        <mxCell id="BerOtadObNwDrbP9cR0y-50" value="" style="shape=partialRectangle;collapsible=0;dropTarget=0;pointerEvents=0;fillColor=none;top=0;left=0;bottom=0;right=0;points=[[0,0.5],[1,0.5]];portConstraint=eastwest;fontSize=18;" parent="BerOtadObNwDrbP9cR0y-49" vertex="1">
          <mxGeometry width="330" height="30" as="geometry" />
        </mxCell>
        <mxCell id="BerOtadObNwDrbP9cR0y-51" value="" style="shape=partialRectangle;html=1;whiteSpace=wrap;connectable=0;overflow=hidden;fillColor=none;top=0;left=0;bottom=0;right=0;pointerEvents=1;fontSize=18;" parent="BerOtadObNwDrbP9cR0y-50" vertex="1">
          <mxGeometry width="90" height="30" as="geometry">
            <mxRectangle width="90" height="30" as="alternateBounds" />
          </mxGeometry>
        </mxCell>
        <mxCell id="BerOtadObNwDrbP9cR0y-52" value="BT下载Transmission" style="shape=partialRectangle;html=1;whiteSpace=wrap;connectable=0;overflow=hidden;fillColor=none;top=0;left=0;bottom=0;right=0;pointerEvents=1;fontSize=18;" parent="BerOtadObNwDrbP9cR0y-50" vertex="1">
          <mxGeometry x="90" width="240" height="30" as="geometry">
            <mxRectangle width="240" height="30" as="alternateBounds" />
          </mxGeometry>
        </mxCell>
        <mxCell id="hx7UnCRA5eKLAJgafwng-26" value="&lt;font style=&quot;font-size: 24px&quot;&gt;Web应用服务器&lt;/font&gt;" style="rounded=0;whiteSpace=wrap;html=1;" parent="1" vertex="1">
          <mxGeometry x="740" y="119" width="200" height="30" as="geometry" />
        </mxCell>
        <mxCell id="hx7UnCRA5eKLAJgafwng-27" value="&lt;font style=&quot;font-size: 24px&quot;&gt;反向代理服务器&lt;/font&gt;" style="rounded=0;whiteSpace=wrap;html=1;" parent="1" vertex="1">
          <mxGeometry x="-100" y="100" width="200" height="30" as="geometry" />
        </mxCell>
        <mxCell id="hx7UnCRA5eKLAJgafwng-49" value="Nginx&lt;br&gt;&lt;br&gt;&lt;br&gt;&lt;br&gt;&lt;br&gt;&lt;br&gt;" style="rounded=0;whiteSpace=wrap;html=1;fontSize=18;" parent="1" vertex="1">
          <mxGeometry x="-190" y="420" width="280" height="169.5" as="geometry" />
        </mxCell>
        <mxCell id="rzm8wvXEx45XX3Ws8Rya-42" style="edgeStyle=orthogonalEdgeStyle;rounded=0;orthogonalLoop=1;jettySize=auto;html=1;exitX=1;exitY=0.5;exitDx=0;exitDy=0;entryX=0;entryY=0.5;entryDx=0;entryDy=0;fontSize=18;" parent="1" source="hx7UnCRA5eKLAJgafwng-39" target="rzm8wvXEx45XX3Ws8Rya-20" edge="1">
          <mxGeometry relative="1" as="geometry">
            <Array as="points">
              <mxPoint x="80" y="486" />
              <mxPoint x="80" y="516" />
            </Array>
          </mxGeometry>
        </mxCell>
        <mxCell id="hx7UnCRA5eKLAJgafwng-39" value="&lt;font style=&quot;font-size: 18px&quot;&gt;drawio.charleshe.top&lt;/font&gt;" style="rounded=0;whiteSpace=wrap;html=1;fontSize=24;" parent="1" vertex="1">
          <mxGeometry x="-170" y="468" width="220" height="35" as="geometry" />
        </mxCell>
        <mxCell id="rzm8wvXEx45XX3Ws8Rya-44" style="edgeStyle=orthogonalEdgeStyle;rounded=0;orthogonalLoop=1;jettySize=auto;html=1;exitX=1;exitY=0.5;exitDx=0;exitDy=0;entryX=0;entryY=0.5;entryDx=0;entryDy=0;fontSize=18;" parent="1" source="hx7UnCRA5eKLAJgafwng-45" target="rzm8wvXEx45XX3Ws8Rya-20" edge="1">
          <mxGeometry relative="1" as="geometry">
            <Array as="points">
              <mxPoint x="80" y="546" />
              <mxPoint x="80" y="516" />
            </Array>
          </mxGeometry>
        </mxCell>
        <mxCell id="hx7UnCRA5eKLAJgafwng-45" value="&lt;font style=&quot;font-size: 18px&quot;&gt;blog.charleshe.top&lt;/font&gt;" style="rounded=0;whiteSpace=wrap;html=1;fontSize=24;" parent="1" vertex="1">
          <mxGeometry x="-170" y="528.75" width="220" height="35" as="geometry" />
        </mxCell>
        <mxCell id="rzm8wvXEx45XX3Ws8Rya-28" style="edgeStyle=orthogonalEdgeStyle;rounded=0;orthogonalLoop=1;jettySize=auto;html=1;exitX=1;exitY=0.5;exitDx=0;exitDy=0;entryX=0;entryY=0.5;entryDx=0;entryDy=0;fontSize=18;" parent="1" source="rzm8wvXEx45XX3Ws8Rya-14" target="rzm8wvXEx45XX3Ws8Rya-23" edge="1">
          <mxGeometry relative="1" as="geometry" />
        </mxCell>
        <mxCell id="rzm8wvXEx45XX3Ws8Rya-29" style="edgeStyle=orthogonalEdgeStyle;rounded=0;orthogonalLoop=1;jettySize=auto;html=1;exitX=1;exitY=0.5;exitDx=0;exitDy=0;entryX=0;entryY=0.5;entryDx=0;entryDy=0;fontSize=18;" parent="1" source="rzm8wvXEx45XX3Ws8Rya-14" target="BerOtadObNwDrbP9cR0y-18" edge="1">
          <mxGeometry relative="1" as="geometry" />
        </mxCell>
        <mxCell id="rzm8wvXEx45XX3Ws8Rya-14" value="&lt;font style=&quot;font-size: 18px&quot;&gt;TCP接收器&lt;/font&gt;" style="rounded=0;whiteSpace=wrap;html=1;fontSize=24;" parent="1" vertex="1">
          <mxGeometry x="625" y="240" width="130" height="40.5" as="geometry" />
        </mxCell>
        <mxCell id="rzm8wvXEx45XX3Ws8Rya-15" value="&lt;font style=&quot;font-size: 18px&quot;&gt;HTTP接收器&lt;/font&gt;" style="rounded=0;whiteSpace=wrap;html=1;fontSize=24;" parent="1" vertex="1">
          <mxGeometry x="625" y="496" width="130" height="39.75" as="geometry" />
        </mxCell>
        <mxCell id="rzm8wvXEx45XX3Ws8Rya-30" style="edgeStyle=orthogonalEdgeStyle;rounded=0;orthogonalLoop=1;jettySize=auto;html=1;exitX=1;exitY=0.5;exitDx=0;exitDy=0;fontSize=18;" parent="1" source="rzm8wvXEx45XX3Ws8Rya-19" target="rzm8wvXEx45XX3Ws8Rya-14" edge="1">
          <mxGeometry relative="1" as="geometry" />
        </mxCell>
        <mxCell id="rzm8wvXEx45XX3Ws8Rya-19" value="&lt;font style=&quot;font-size: 18px&quot;&gt;220X&lt;br&gt;25565&lt;br&gt;&lt;/font&gt;" style="rounded=0;whiteSpace=wrap;html=1;fontSize=24;" parent="1" vertex="1">
          <mxGeometry x="125" y="231" width="130" height="60" as="geometry" />
        </mxCell>
        <mxCell id="rzm8wvXEx45XX3Ws8Rya-20" value="&lt;span style=&quot;font-size: 18px&quot;&gt;24680&lt;/span&gt;" style="rounded=0;whiteSpace=wrap;html=1;fontSize=24;" parent="1" vertex="1">
          <mxGeometry x="125" y="496" width="130" height="40.5" as="geometry" />
        </mxCell>
        <mxCell id="rzm8wvXEx45XX3Ws8Rya-22" value="" style="shape=table;startSize=0;container=1;collapsible=0;childLayout=tableLayout;fontSize=18;" parent="1" vertex="1">
          <mxGeometry x="880" y="219" width="330" height="30" as="geometry" />
        </mxCell>
        <mxCell id="rzm8wvXEx45XX3Ws8Rya-23" value="" style="shape=partialRectangle;collapsible=0;dropTarget=0;pointerEvents=0;fillColor=none;top=0;left=0;bottom=0;right=0;points=[[0,0.5],[1,0.5]];portConstraint=eastwest;fontSize=18;" parent="rzm8wvXEx45XX3Ws8Rya-22" vertex="1">
          <mxGeometry width="330" height="30" as="geometry" />
        </mxCell>
        <mxCell id="rzm8wvXEx45XX3Ws8Rya-24" value="22" style="shape=partialRectangle;html=1;whiteSpace=wrap;connectable=0;overflow=hidden;fillColor=none;top=0;left=0;bottom=0;right=0;pointerEvents=1;fontSize=18;" parent="rzm8wvXEx45XX3Ws8Rya-23" vertex="1">
          <mxGeometry width="90" height="30" as="geometry">
            <mxRectangle width="90" height="30" as="alternateBounds" />
          </mxGeometry>
        </mxCell>
        <mxCell id="rzm8wvXEx45XX3Ws8Rya-25" value="SSH" style="shape=partialRectangle;html=1;whiteSpace=wrap;connectable=0;overflow=hidden;fillColor=none;top=0;left=0;bottom=0;right=0;pointerEvents=1;fontSize=18;" parent="rzm8wvXEx45XX3Ws8Rya-23" vertex="1">
          <mxGeometry x="90" width="240" height="30" as="geometry">
            <mxRectangle width="240" height="30" as="alternateBounds" />
          </mxGeometry>
        </mxCell>
        <mxCell id="rzm8wvXEx45XX3Ws8Rya-31" style="edgeStyle=orthogonalEdgeStyle;rounded=0;orthogonalLoop=1;jettySize=auto;html=1;exitX=0;exitY=0.5;exitDx=0;exitDy=0;entryX=1;entryY=0.5;entryDx=0;entryDy=0;fontSize=18;" parent="1" source="BerOtadObNwDrbP9cR0y-14" target="rzm8wvXEx45XX3Ws8Rya-15" edge="1">
          <mxGeometry relative="1" as="geometry" />
        </mxCell>
        <mxCell id="rzm8wvXEx45XX3Ws8Rya-32" style="edgeStyle=orthogonalEdgeStyle;rounded=0;orthogonalLoop=1;jettySize=auto;html=1;exitX=0;exitY=0.5;exitDx=0;exitDy=0;entryX=1;entryY=0.5;entryDx=0;entryDy=0;fontSize=18;" parent="1" source="BerOtadObNwDrbP9cR0y-22" target="rzm8wvXEx45XX3Ws8Rya-15" edge="1">
          <mxGeometry relative="1" as="geometry" />
        </mxCell>
        <mxCell id="rzm8wvXEx45XX3Ws8Rya-33" style="edgeStyle=orthogonalEdgeStyle;rounded=0;orthogonalLoop=1;jettySize=auto;html=1;exitX=0;exitY=0.5;exitDx=0;exitDy=0;entryX=1;entryY=0.5;entryDx=0;entryDy=0;fontSize=18;" parent="1" source="BerOtadObNwDrbP9cR0y-38" target="rzm8wvXEx45XX3Ws8Rya-15" edge="1">
          <mxGeometry relative="1" as="geometry" />
        </mxCell>
        <mxCell id="rzm8wvXEx45XX3Ws8Rya-34" style="edgeStyle=orthogonalEdgeStyle;rounded=0;orthogonalLoop=1;jettySize=auto;html=1;exitX=0;exitY=0.5;exitDx=0;exitDy=0;entryX=1;entryY=0.5;entryDx=0;entryDy=0;fontSize=18;" parent="1" source="BerOtadObNwDrbP9cR0y-34" target="rzm8wvXEx45XX3Ws8Rya-15" edge="1">
          <mxGeometry relative="1" as="geometry" />
        </mxCell>
        <mxCell id="rzm8wvXEx45XX3Ws8Rya-35" style="edgeStyle=orthogonalEdgeStyle;rounded=0;orthogonalLoop=1;jettySize=auto;html=1;exitX=0;exitY=0.5;exitDx=0;exitDy=0;entryX=1;entryY=0.5;entryDx=0;entryDy=0;fontSize=18;" parent="1" source="BerOtadObNwDrbP9cR0y-42" target="rzm8wvXEx45XX3Ws8Rya-15" edge="1">
          <mxGeometry relative="1" as="geometry" />
        </mxCell>
        <mxCell id="rzm8wvXEx45XX3Ws8Rya-36" style="edgeStyle=orthogonalEdgeStyle;rounded=0;orthogonalLoop=1;jettySize=auto;html=1;exitX=0;exitY=0.5;exitDx=0;exitDy=0;entryX=1;entryY=0.5;entryDx=0;entryDy=0;fontSize=18;" parent="1" source="BerOtadObNwDrbP9cR0y-46" target="rzm8wvXEx45XX3Ws8Rya-15" edge="1">
          <mxGeometry relative="1" as="geometry" />
        </mxCell>
        <mxCell id="rzm8wvXEx45XX3Ws8Rya-37" style="edgeStyle=orthogonalEdgeStyle;rounded=0;orthogonalLoop=1;jettySize=auto;html=1;exitX=0;exitY=0.5;exitDx=0;exitDy=0;entryX=1;entryY=0.5;entryDx=0;entryDy=0;fontSize=18;" parent="1" source="BerOtadObNwDrbP9cR0y-50" target="rzm8wvXEx45XX3Ws8Rya-15" edge="1">
          <mxGeometry relative="1" as="geometry" />
        </mxCell>
        <mxCell id="hEPSUkg9yCl_xXmrTchE-1" value="https://zhuanlan.zhihu.com/p/166019428" style="whiteSpace=wrap;html=1;" vertex="1" parent="1">
          <mxGeometry x="290" y="40" width="300" height="50" as="geometry" />
        </mxCell>
      </root>
    </mxGraphModel>
  </diagram>
</mxfile>
